<svg version="1.1" id="Layer_1" xmlns="http://www.w3.org/2000/svg" xmlns:xlink="http://www.w3.org/1999/xlink" x="0px" y="0px"
	 width="100%" viewBox="0 0 2000 1392" enable-background="new 0 0 2000 1392" xml:space="preserve">
<path fill="#4C6971" opacity="1.000000" stroke="none" 
	d="
M1296.000000,1393.000000 
	C864.000122,1393.000000 432.500244,1393.000000 1.000289,1393.000000 
	C1.000193,929.000244 1.000193,465.000519 1.000096,1.000601 
	C667.666199,1.000401 1334.332397,1.000401 2000.999023,1.000200 
	C2000.999268,464.999390 2000.999268,928.998779 2000.999634,1392.999023 
	C1766.166626,1393.000000 1531.333374,1393.000000 1296.000000,1393.000000 
M1515.000000,1228.500000 
	C1515.000000,824.172852 1515.000000,419.845703 1515.000000,15.000139 
	C1512.332886,15.000139 1510.371338,15.000142 1508.409790,15.000138 
	C1478.576660,15.000093 1448.743652,14.999994 1418.910522,15.000008 
	C1310.578003,15.000055 1202.245361,15.010801 1093.912842,14.955903 
	C1090.118652,14.953980 1087.875732,15.256371 1086.721069,19.991165 
	C1078.267700,54.655411 1069.363037,89.209633 1060.595459,123.797249 
	C1046.736938,178.468842 1032.845947,233.132248 1019.023193,287.812836 
	C1009.512329,325.436371 1000.131836,363.092804 990.624817,400.717285 
	C973.786255,467.357025 956.871826,533.977539 940.036865,600.618225 
	C930.854187,636.967651 921.814087,673.353149 912.630676,709.702454 
	C895.794373,776.342590 878.900085,842.968140 862.029175,909.599548 
	C853.392273,943.710999 844.697571,977.807922 836.128723,1011.936401 
	C823.354736,1062.813965 810.715820,1113.725464 797.928284,1164.599609 
	C789.711121,1197.291138 781.359253,1229.948975 772.931458,1262.586670 
	C772.546448,1264.077515 770.818848,1265.221680 769.608887,1266.655029 
	C768.609314,1265.549683 768.431519,1265.442993 768.395020,1265.300171 
	C755.584534,1215.118042 742.773071,1164.936401 729.987000,1114.748169 
	C723.126526,1087.819336 716.332520,1060.873535 709.468506,1033.945557 
	C696.999634,985.029480 684.480286,936.126221 672.022888,887.207214 
	C665.124695,860.118774 658.335571,833.002563 651.451111,805.910645 
	C638.978088,756.826355 626.491943,707.745300 613.970398,658.673401 
	C604.416870,621.232849 594.745728,583.822205 585.224548,546.373474 
	C570.435669,488.205780 555.730042,430.016876 540.988831,371.837036 
	C534.163513,344.899170 527.352417,317.957672 520.508057,291.024628 
	C507.993927,241.780777 495.456665,192.542831 482.934906,143.300919 
	C472.520294,102.345276 462.046112,61.404495 451.801971,20.406239 
	C450.693695,15.970899 448.761688,14.888850 444.344513,14.893001 
	C305.178955,15.023745 166.013275,14.999435 26.847610,15.010506 
	C25.069399,15.010647 23.291201,15.162809 21.309679,15.253300 
	C21.309679,467.923553 21.309679,920.156616 21.309679,1372.546387 
	C106.639626,1372.546387 191.659180,1372.546387 276.999786,1372.546387 
	C276.999786,1370.274902 277.038300,1368.452393 276.993683,1366.631836 
	C276.672150,1353.515625 276.215149,1340.401489 276.025208,1327.283447 
	C275.613251,1298.835327 275.333282,1270.385498 275.002838,1241.936279 
	C274.666595,1212.987061 274.334991,1184.037964 274.000610,1155.088745 
	C273.668152,1126.306274 273.335083,1097.523682 273.001801,1068.741211 
	C272.668518,1039.958740 272.335266,1011.176147 272.000885,982.393616 
	C271.668488,953.777771 271.334625,925.161926 271.001404,896.546082 
	C270.668213,867.930237 270.332886,839.314331 270.002380,810.698486 
	C269.666077,781.582642 269.337158,752.466797 269.000153,723.350952 
	C268.670807,694.901733 268.313995,666.452820 268.008087,638.003357 
	C267.650146,604.721130 267.368317,571.438049 266.988495,538.156067 
	C266.715210,514.206177 266.307281,490.257843 266.010681,466.308197 
	C265.645996,436.859375 265.338959,407.409882 264.998871,377.960754 
	C264.672272,349.678162 264.330566,321.395782 264.004059,293.113190 
	C263.664093,263.664062 263.230835,234.215530 263.032623,204.765427 
	C262.872223,180.933334 263.000092,157.099319 263.000092,133.266159 
	C263.000092,131.308350 263.000122,129.350525 263.000122,127.392715 
	C263.574707,127.159920 264.149292,126.927116 264.723877,126.694313 
	C265.505280,128.045090 266.633972,129.304520 267.016785,130.760117 
	C274.585419,159.540405 282.109192,188.332687 289.558472,217.144150 
	C303.717194,271.905579 317.821106,326.681152 331.952026,381.449738 
	C340.578094,414.882477 349.232544,448.307892 357.837646,481.746002 
	C369.557709,527.288330 381.274445,572.831604 392.932373,618.389832 
	C401.166290,650.567505 409.216217,682.792419 417.498474,714.957520 
	C429.921478,763.203735 442.488892,811.412781 454.970612,859.643921 
	C463.950531,894.343567 472.911499,929.048218 481.843872,963.760132 
	C493.563324,1009.302673 505.261475,1054.850708 516.940552,1100.403687 
	C526.822571,1138.947510 536.661377,1177.502319 546.525085,1216.050781 
	C559.364258,1266.228027 572.266724,1316.389160 584.957642,1366.603882 
	C586.153015,1371.333740 587.824585,1373.153564 593.125671,1373.145020 
	C709.624512,1372.955078 826.123840,1372.959595 942.622742,1373.133423 
	C947.826538,1373.141113 949.820740,1371.373291 951.013916,1366.647095 
	C957.734680,1340.025391 964.618652,1313.444580 971.570984,1286.882080 
	C983.977112,1239.482910 996.523865,1192.120605 1008.911255,1144.716553 
	C1017.474487,1111.946655 1025.790039,1079.112061 1034.358154,1046.343506 
	C1045.463013,1003.873352 1056.737183,961.447449 1067.885620,918.988708 
	C1077.572754,882.095276 1087.195312,845.184937 1096.830200,808.277832 
	C1110.535278,755.779297 1124.248657,703.282959 1137.914551,650.774231 
	C1148.474487,610.199646 1158.910400,569.592773 1169.503662,529.026917 
	C1182.589355,478.916290 1195.816772,428.842621 1208.914185,378.734985 
	C1217.521118,345.807159 1225.995850,312.844849 1234.548950,279.902985 
	C1246.077515,235.501968 1257.608887,191.101624 1269.181396,146.712036 
	C1270.874023,140.219193 1272.799805,133.787140 1274.617798,127.326950 
	C1275.827759,129.105560 1276.034668,130.694550 1275.979370,132.274384 
	C1275.690186,140.558548 1275.174194,148.837631 1275.032349,157.123550 
	C1274.614136,181.571304 1274.333740,206.021423 1274.001587,230.470642 
	C1273.667114,255.086487 1273.334839,279.702362 1273.001465,304.318237 
	C1272.668213,328.934113 1272.335449,353.549957 1272.001953,378.165833 
	C1271.668457,402.781708 1271.335449,427.397583 1271.000122,452.013428 
	C1270.669189,476.295990 1270.314697,500.578217 1270.008057,524.861084 
	C1269.650879,553.143311 1269.367065,581.426453 1268.989014,609.708435 
	C1268.713379,630.325073 1268.307739,650.939941 1268.011841,671.556396 
	C1267.646606,697.005188 1267.341797,722.454773 1266.998169,747.903870 
	C1266.674927,771.853210 1266.329834,795.802185 1266.004517,819.751465 
	C1265.663452,844.867310 1265.340088,869.983276 1264.998901,895.099121 
	C1264.673584,919.048401 1264.321411,942.997314 1264.006226,966.946777 
	C1263.656006,993.562378 1263.352661,1020.178711 1262.994263,1046.794189 
	C1262.689819,1069.410400 1262.323486,1092.025879 1262.007080,1114.641846 
	C1261.658203,1139.590942 1261.338257,1164.540283 1260.999268,1189.489502 
	C1260.671509,1213.605347 1260.280151,1237.720581 1260.015747,1261.837158 
	C1259.630737,1296.952515 1259.330078,1332.068604 1259.012817,1367.184570 
	C1258.996948,1368.959229 1259.164551,1370.735352 1259.254395,1372.676147 
	C1344.614990,1372.676147 1429.516724,1372.676147 1515.000000,1372.676147 
	C1515.000000,1324.736450 1515.000000,1277.118164 1515.000000,1228.500000 
M1768.499512,1085.972290 
	C1765.556519,1086.973755 1762.589111,1087.909546 1759.674561,1088.988037 
	C1746.715210,1093.783325 1735.039917,1100.468384 1725.030151,1110.288330 
	C1713.926270,1121.181641 1706.620850,1134.413452 1700.480591,1148.279297 
	C1691.768433,1167.953369 1686.455322,1188.602051 1686.027954,1210.275879 
	C1685.856201,1218.989746 1685.585449,1227.734741 1686.108643,1236.420532 
	C1686.711426,1246.430664 1687.376831,1256.547485 1689.379150,1266.339111 
	C1693.105713,1284.563354 1699.503418,1301.852539 1708.502319,1318.327515 
	C1719.557983,1338.568237 1735.856079,1352.408081 1756.863892,1360.815186 
	C1778.832031,1369.606567 1802.116821,1371.942627 1825.515381,1372.899414 
	C1833.098755,1373.209473 1840.771851,1372.724731 1848.330688,1371.917603 
	C1861.061279,1370.558472 1873.932861,1369.546265 1886.384521,1366.770508 
	C1906.493774,1362.287842 1924.604248,1353.336914 1938.686157,1337.739014 
	C1948.139526,1327.268066 1954.899048,1315.075928 1960.461792,1302.140503 
	C1969.193970,1281.835327 1973.959717,1260.641113 1974.931274,1238.622437 
	C1975.344482,1229.258057 1975.271973,1219.849854 1974.914551,1210.480957 
	C1974.626099,1202.917358 1974.213989,1195.256714 1972.746338,1187.859375 
	C1968.728149,1167.606567 1961.936768,1148.373657 1951.296021,1130.463257 
	C1941.574951,1114.100586 1928.772705,1101.377930 1911.724609,1092.922974 
	C1890.966431,1082.628174 1868.584839,1079.215942 1845.836060,1078.158203 
	C1833.769653,1077.597046 1821.626343,1078.630371 1809.519775,1079.005615 
	C1795.804443,1079.430786 1782.430054,1081.907593 1768.499512,1085.972290 
z"/>
<path fill="#000000" opacity="1.000000" stroke="none" 
	d="
M1515.000000,1229.000000 
	C1515.000000,1277.118164 1515.000000,1324.736450 1515.000000,1372.676147 
	C1429.516724,1372.676147 1344.614990,1372.676147 1259.254395,1372.676147 
	C1259.164551,1370.735352 1258.996948,1368.959229 1259.012817,1367.184570 
	C1259.330078,1332.068604 1259.630737,1296.952515 1260.015747,1261.837158 
	C1260.280151,1237.720581 1260.671509,1213.605347 1260.999268,1189.489502 
	C1261.338257,1164.540283 1261.658203,1139.590942 1262.007080,1114.641846 
	C1262.323486,1092.025879 1262.689819,1069.410400 1262.994263,1046.794189 
	C1263.352661,1020.178711 1263.656006,993.562378 1264.006226,966.946777 
	C1264.321411,942.997314 1264.673584,919.048401 1264.998901,895.099121 
	C1265.340088,869.983276 1265.663452,844.867310 1266.004517,819.751465 
	C1266.329834,795.802185 1266.674927,771.853210 1266.998169,747.903870 
	C1267.341797,722.454773 1267.646606,697.005188 1268.011841,671.556396 
	C1268.307739,650.939941 1268.713379,630.325073 1268.989014,609.708435 
	C1269.367065,581.426453 1269.650879,553.143311 1270.008057,524.861084 
	C1270.314697,500.578217 1270.669189,476.295990 1271.000122,452.013428 
	C1271.335449,427.397583 1271.668457,402.781708 1272.001953,378.165833 
	C1272.335449,353.549957 1272.668213,328.934113 1273.001465,304.318237 
	C1273.334839,279.702362 1273.667114,255.086487 1274.001587,230.470642 
	C1274.333740,206.021423 1274.614136,181.571304 1275.032349,157.123550 
	C1275.174194,148.837631 1275.690186,140.558548 1275.979370,132.274384 
	C1276.034668,130.694550 1275.827759,129.105560 1274.617798,127.326950 
	C1272.799805,133.787140 1270.874023,140.219193 1269.181396,146.712036 
	C1257.608887,191.101624 1246.077515,235.501968 1234.548950,279.902985 
	C1225.995850,312.844849 1217.521118,345.807159 1208.914185,378.734985 
	C1195.816772,428.842621 1182.589355,478.916290 1169.503662,529.026917 
	C1158.910400,569.592773 1148.474487,610.199646 1137.914551,650.774231 
	C1124.248657,703.282959 1110.535278,755.779297 1096.830200,808.277832 
	C1087.195312,845.184937 1077.572754,882.095276 1067.885620,918.988708 
	C1056.737183,961.447449 1045.463013,1003.873352 1034.358154,1046.343506 
	C1025.790039,1079.112061 1017.474487,1111.946655 1008.911255,1144.716553 
	C996.523865,1192.120605 983.977112,1239.482910 971.570984,1286.882080 
	C964.618652,1313.444580 957.734680,1340.025391 951.013916,1366.647095 
	C949.820740,1371.373291 947.826538,1373.141113 942.622742,1373.133423 
	C826.123840,1372.959595 709.624512,1372.955078 593.125671,1373.145020 
	C587.824585,1373.153564 586.153015,1371.333740 584.957642,1366.603882 
	C572.266724,1316.389160 559.364258,1266.228027 546.525085,1216.050781 
	C536.661377,1177.502319 526.822571,1138.947510 516.940552,1100.403687 
	C505.261475,1054.850708 493.563324,1009.302673 481.843872,963.760132 
	C472.911499,929.048218 463.950531,894.343567 454.970612,859.643921 
	C442.488892,811.412781 429.921478,763.203735 417.498474,714.957520 
	C409.216217,682.792419 401.166290,650.567505 392.932373,618.389832 
	C381.274445,572.831604 369.557709,527.288330 357.837646,481.746002 
	C349.232544,448.307892 340.578094,414.882477 331.952026,381.449738 
	C317.821106,326.681152 303.717194,271.905579 289.558472,217.144150 
	C282.109192,188.332687 274.585419,159.540405 267.016785,130.760117 
	C266.633972,129.304520 265.505280,128.045090 264.723877,126.694313 
	C264.149292,126.927116 263.574707,127.159920 263.000122,127.392715 
	C263.000122,129.350525 263.000092,131.308350 263.000092,133.266159 
	C263.000092,157.099319 262.872223,180.933334 263.032623,204.765427 
	C263.230835,234.215530 263.664093,263.664062 264.004059,293.113190 
	C264.330566,321.395782 264.672272,349.678162 264.998871,377.960754 
	C265.338959,407.409882 265.645996,436.859375 266.010681,466.308197 
	C266.307281,490.257843 266.715210,514.206177 266.988495,538.156067 
	C267.368317,571.438049 267.650146,604.721130 268.008087,638.003357 
	C268.313995,666.452820 268.670807,694.901733 269.000153,723.350952 
	C269.337158,752.466797 269.666077,781.582642 270.002380,810.698486 
	C270.332886,839.314331 270.668213,867.930237 271.001404,896.546082 
	C271.334625,925.161926 271.668488,953.777771 272.000885,982.393616 
	C272.335266,1011.176147 272.668518,1039.958740 273.001801,1068.741211 
	C273.335083,1097.523682 273.668152,1126.306274 274.000610,1155.088745 
	C274.334991,1184.037964 274.666595,1212.987061 275.002838,1241.936279 
	C275.333282,1270.385498 275.613251,1298.835327 276.025208,1327.283447 
	C276.215149,1340.401489 276.672150,1353.515625 276.993683,1366.631836 
	C277.038300,1368.452393 276.999786,1370.274902 276.999786,1372.546387 
	C191.659180,1372.546387 106.639626,1372.546387 21.309679,1372.546387 
	C21.309679,920.156616 21.309679,467.923553 21.309679,15.253300 
	C23.291201,15.162809 25.069399,15.010647 26.847610,15.010506 
	C166.013275,14.999435 305.178955,15.023745 444.344513,14.893001 
	C448.761688,14.888850 450.693695,15.970899 451.801971,20.406239 
	C462.046112,61.404495 472.520294,102.345276 482.934906,143.300919 
	C495.456665,192.542831 507.993927,241.780777 520.508057,291.024628 
	C527.352417,317.957672 534.163513,344.899170 540.988831,371.837036 
	C555.730042,430.016876 570.435669,488.205780 585.224548,546.373474 
	C594.745728,583.822205 604.416870,621.232849 613.970398,658.673401 
	C626.491943,707.745300 638.978088,756.826355 651.451111,805.910645 
	C658.335571,833.002563 665.124695,860.118774 672.022888,887.207214 
	C684.480286,936.126221 696.999634,985.029480 709.468506,1033.945557 
	C716.332520,1060.873535 723.126526,1087.819336 729.987000,1114.748169 
	C742.773071,1164.936401 755.584534,1215.118042 768.395020,1265.300171 
	C768.431519,1265.442993 768.609314,1265.549683 769.608887,1266.655029 
	C770.818848,1265.221680 772.546448,1264.077515 772.931458,1262.586670 
	C781.359253,1229.948975 789.711121,1197.291138 797.928284,1164.599609 
	C810.715820,1113.725464 823.354736,1062.813965 836.128723,1011.936401 
	C844.697571,977.807922 853.392273,943.710999 862.029175,909.599548 
	C878.900085,842.968140 895.794373,776.342590 912.630676,709.702454 
	C921.814087,673.353149 930.854187,636.967651 940.036865,600.618225 
	C956.871826,533.977539 973.786255,467.357025 990.624817,400.717285 
	C1000.131836,363.092804 1009.512329,325.436371 1019.023193,287.812836 
	C1032.845947,233.132248 1046.736938,178.468842 1060.595459,123.797249 
	C1069.363037,89.209633 1078.267700,54.655411 1086.721069,19.991165 
	C1087.875732,15.256371 1090.118652,14.953980 1093.912842,14.955903 
	C1202.245361,15.010801 1310.578003,15.000055 1418.910522,15.000008 
	C1448.743652,14.999994 1478.576660,15.000093 1508.409790,15.000138 
	C1510.371338,15.000142 1512.332886,15.000139 1515.000000,15.000139 
	C1515.000000,419.845703 1515.000000,824.172852 1515.000000,1229.000000 
z"/>
<path fill="#FF4136" opacity="1.000000" stroke="none" 
	d="
M1768.906250,1085.919189 
	C1782.430054,1081.907593 1795.804443,1079.430786 1809.519775,1079.005615 
	C1821.626343,1078.630371 1833.769653,1077.597046 1845.836060,1078.158203 
	C1868.584839,1079.215942 1890.966431,1082.628174 1911.724609,1092.922974 
	C1928.772705,1101.377930 1941.574951,1114.100586 1951.296021,1130.463257 
	C1961.936768,1148.373657 1968.728149,1167.606567 1972.746338,1187.859375 
	C1974.213989,1195.256714 1974.626099,1202.917358 1974.914551,1210.480957 
	C1975.271973,1219.849854 1975.344482,1229.258057 1974.931274,1238.622437 
	C1973.959717,1260.641113 1969.193970,1281.835327 1960.461792,1302.140503 
	C1954.899048,1315.075928 1948.139526,1327.268066 1938.686157,1337.739014 
	C1924.604248,1353.336914 1906.493774,1362.287842 1886.384521,1366.770508 
	C1873.932861,1369.546265 1861.061279,1370.558472 1848.330688,1371.917603 
	C1840.771851,1372.724731 1833.098755,1373.209473 1825.515381,1372.899414 
	C1802.116821,1371.942627 1778.832031,1369.606567 1756.863892,1360.815186 
	C1735.856079,1352.408081 1719.557983,1338.568237 1708.502319,1318.327515 
	C1699.503418,1301.852539 1693.105713,1284.563354 1689.379150,1266.339111 
	C1687.376831,1256.547485 1686.711426,1246.430664 1686.108643,1236.420532 
	C1685.585449,1227.734741 1685.856201,1218.989746 1686.027954,1210.275879 
	C1686.455322,1188.602051 1691.768433,1167.953369 1700.480591,1148.279297 
	C1706.620850,1134.413452 1713.926270,1121.181641 1725.030151,1110.288330 
	C1735.039917,1100.468384 1746.715210,1093.783325 1759.674561,1088.988037 
	C1762.589111,1087.909546 1765.556519,1086.973755 1768.906250,1085.919189 
z"/>
</svg>